<svg height="320" viewBox="0 0 560 320" width="560" xmlns="http://www.w3.org/2000/svg"><rect width="560" height="320" fill="#ffffff"/><g transform="translate(60,40)"><text x="240" y="16" text-anchor="middle" font-family="sans-serif" font-size="16" font-weight="bold" fill="#333333">Revenue Over Time</text><line x1="0" y1="220" x2="480" y2="220" stroke="#e0e0e0" stroke-dasharray="2,2"/><line x1="0" y1="177.692" x2="480" y2="177.692" stroke="#e0e0e0" stroke-dasharray="2,2"/><line x1="0" y1="135.385" x2="480" y2="135.385" stroke="#e0e0e0" stroke-dasharray="2,2"/><line x1="0" y1="93.077" x2="480" y2="93.077" stroke="#e0e0e0" stroke-dasharray="2,2"/><line x1="0" y1="50.769" x2="480" y2="50.769" stroke="#e0e0e0" stroke-dasharray="2,2"/><line x1="0" y1="8.462" x2="480" y2="8.462" stroke="#e0e0e0" stroke-dasharray="2,2"/><path d="M 0,177.692 C 26.667,157.949 53.333,118.462 80,118.462 C 106.667,118.462 133.333,152.308 160,152.308 C 186.667,152.308 213.333,50.769 240,50.769 C 266.667,50.769 293.333,93.077 320,93.077 C 346.667,93.077 373.333,8.462 400,8.462 C 426.667,8.462 453.333,47.949 480,67.692 L 480,220 L 0,220 Z" fill="#4e79a7" fill-opacity="0.25" stroke="none"/><path d="M 0,177.692 C 26.667,157.949 53.333,118.462 80,118.462 C 106.667,118.462 133.333,152.308 160,152.308 C 186.667,152.308 213.333,50.769 240,50.769 C 266.667,50.769 293.333,93.077 320,93.077 C 346.667,93.077 373.333,8.462 400,8.462 C 426.667,8.462 453.333,47.949 480,67.692" fill="none" stroke="#4e79a7" stroke-width="2"/><g class="axis axis-bottom" fill="none" stroke="none"><line x1="0" x2="480" stroke="#333333"/><g transform="translate(0,0)"><line y2="6" stroke="#333333"/><text y="21" text-anchor="middle" font-family="sans-serif" font-size="12" fill="#333333">0</text></g><g transform="translate(80,0)"><line y2="6" stroke="#333333"/><text y="21" text-anchor="middle" font-family="sans-serif" font-size="12" fill="#333333">1</text></g><g transform="translate(160,0)"><line y2="6" stroke="#333333"/><text y="21" text-anchor="middle" font-family="sans-serif" font-size="12" fill="#333333">2</text></g><g transform="translate(240,0)"><line y2="6" stroke="#333333"/><text y="21" text-anchor="middle" font-family="sans-serif" font-size="12" fill="#333333">3</text></g><g transform="translate(320,0)"><line y2="6" stroke="#333333"/><text y="21" text-anchor="middle" font-family="sans-serif" font-size="12" fill="#333333">4</text></g><g transform="translate(400,0)"><line y2="6" stroke="#333333"/><text y="21" text-anchor="middle" font-family="sans-serif" font-size="12" fill="#333333">5</text></g><g transform="translate(480,0)"><line y2="6" stroke="#333333"/><text y="21" text-anchor="middle" font-family="sans-serif" font-size="12" fill="#333333">6</text></g><text x="240" y="41" text-anchor="middle" font-family="sans-serif" font-size="13" fill="#333333">Month</text></g><g class="axis axis-left" fill="none" stroke="none"><line y1="220" y2="0" stroke="#333333"/><g transform="translate(0,220)"><line x2="-6" stroke="#333333"/><text x="-9" dy="0.32em" text-anchor="end" font-family="sans-serif" font-size="12" fill="#333333">0</text></g><g transform="translate(0,177.692)"><line x2="-6" stroke="#333333"/><text x="-9" dy="0.32em" text-anchor="end" font-family="sans-serif" font-size="12" fill="#333333">5</text></g><g transform="translate(0,135.385)"><line x2="-6" stroke="#333333"/><text x="-9" dy="0.32em" text-anchor="end" font-family="sans-serif" font-size="12" fill="#333333">10</text></g><g transform="translate(0,93.077)"><line x2="-6" stroke="#333333"/><text x="-9" dy="0.32em" text-anchor="end" font-family="sans-serif" font-size="12" fill="#333333">15</text></g><g transform="translate(0,50.769)"><line x2="-6" stroke="#333333"/><text x="-9" dy="0.32em" text-anchor="end" font-family="sans-serif" font-size="12" fill="#333333">20</text></g><g transform="translate(0,8.462)"><line x2="-6" stroke="#333333"/><text x="-9" dy="0.32em" text-anchor="end" font-family="sans-serif" font-size="12" fill="#333333">25</text></g><text transform="rotate(-90)" x="-110" y="-69" text-anchor="middle" font-family="sans-serif" font-size="13" fill="#333333">Revenue</text></g></g></svg>