<svg height="320" viewBox="0 0 560 320" width="560" xmlns="http://www.w3.org/2000/svg"><rect width="560" height="320" fill="#ffffff"/><g transform="translate(60,40)"><text x="240" y="16" text-anchor="middle" font-family="sans-serif" font-size="16" font-weight="bold" fill="#333333">Monthly Sales</text><line x1="0" y1="220" x2="480" y2="220" stroke="#e0e0e0" stroke-dasharray="2,2"/><line x1="0" y1="165" x2="480" y2="165" stroke="#e0e0e0" stroke-dasharray="2,2"/><line x1="0" y1="110" x2="480" y2="110" stroke="#e0e0e0" stroke-dasharray="2,2"/><line x1="0" y1="55" x2="480" y2="55" stroke="#e0e0e0" stroke-dasharray="2,2"/><line x1="0" y1="0" x2="480" y2="0" stroke="#e0e0e0" stroke-dasharray="2,2"/><rect x="8" y="88" width="64" height="132" fill="#4e79a7"/><text x="40" y="84" text-anchor="middle" font-family="sans-serif" font-size="12" fill="#333333">120</text><rect x="88" y="112.2" width="64" height="107.8" fill="#f28e2b"/><text x="120" y="108.2" text-anchor="middle" font-family="sans-serif" font-size="12" fill="#333333">98</text><rect x="168" y="60.5" width="64" height="159.5" fill="#e15759"/><text x="200" y="56.5" text-anchor="middle" font-family="sans-serif" font-size="12" fill="#333333">145</text><rect x="248" y="41.8" width="64" height="178.2" fill="#76b7b2"/><text x="280" y="37.8" text-anchor="middle" font-family="sans-serif" font-size="12" fill="#333333">162</text><rect x="328" y="72.6" width="64" height="147.4" fill="#59a14f"/><text x="360" y="68.6" text-anchor="middle" font-family="sans-serif" font-size="12" fill="#333333">134</text><rect x="408" y="13.2" width="64" height="206.8" fill="#edc948"/><text x="440" y="9.2" text-anchor="middle" font-family="sans-serif" font-size="12" fill="#333333">188</text><g class="axis axis-bottom" fill="none" stroke="none"><line x1="0" x2="480" stroke="#333333"/><g transform="translate(40,0)"><line y2="6" stroke="#333333"/><text y="21" text-anchor="middle" font-family="sans-serif" font-size="12" fill="#333333">Jan</text></g><g transform="translate(120,0)"><line y2="6" stroke="#333333"/><text y="21" text-anchor="middle" font-family="sans-serif" font-size="12" fill="#333333">Feb</text></g><g transform="translate(200,0)"><line y2="6" stroke="#333333"/><text y="21" text-anchor="middle" font-family="sans-serif" font-size="12" fill="#333333">Mar</text></g><g transform="translate(280,0)"><line y2="6" stroke="#333333"/><text y="21" text-anchor="middle" font-family="sans-serif" font-size="12" fill="#333333">Apr</text></g><g transform="translate(360,0)"><line y2="6" stroke="#333333"/><text y="21" text-anchor="middle" font-family="sans-serif" font-size="12" fill="#333333">May</text></g><g transform="translate(440,0)"><line y2="6" stroke="#333333"/><text y="21" text-anchor="middle" font-family="sans-serif" font-size="12" fill="#333333">Jun</text></g><text x="240" y="41" text-anchor="middle" font-family="sans-serif" font-size="13" fill="#333333">Month</text></g><g class="axis axis-left" fill="none" stroke="none"><line y1="220" y2="0" stroke="#333333"/><g transform="translate(0,220)"><line x2="-6" stroke="#333333"/><text x="-9" dy="0.32em" text-anchor="end" font-family="sans-serif" font-size="12" fill="#333333">0</text></g><g transform="translate(0,165)"><line x2="-6" stroke="#333333"/><text x="-9" dy="0.32em" text-anchor="end" font-family="sans-serif" font-size="12" fill="#333333">50</text></g><g transform="translate(0,110)"><line x2="-6" stroke="#333333"/><text x="-9" dy="0.32em" text-anchor="end" font-family="sans-serif" font-size="12" fill="#333333">100</text></g><g transform="translate(0,55)"><line x2="-6" stroke="#333333"/><text x="-9" dy="0.32em" text-anchor="end" font-family="sans-serif" font-size="12" fill="#333333">150</text></g><g transform="translate(0,0)"><line x2="-6" stroke="#333333"/><text x="-9" dy="0.32em" text-anchor="end" font-family="sans-serif" font-size="12" fill="#333333">200</text></g><text transform="rotate(-90)" x="-110" y="-69" text-anchor="middle" font-family="sans-serif" font-size="13" fill="#333333">Sales</text></g></g></svg>