<svg height="300" viewBox="0 0 560 300" width="560" xmlns="http://www.w3.org/2000/svg"><rect width="560" height="300" fill="#ffffff"/><g transform="translate(60,40)"><text x="240" y="14" text-anchor="middle" font-family="sans-serif" font-size="14" font-weight="bold" fill="#555555">Revenue by Product</text><line x1="0" y1="0" x2="0" y2="200" stroke="#f0f0f0" stroke-dasharray="2,2"/><line x1="87.273" y1="0" x2="87.273" y2="200" stroke="#f0f0f0" stroke-dasharray="2,2"/><line x1="174.545" y1="0" x2="174.545" y2="200" stroke="#f0f0f0" stroke-dasharray="2,2"/><line x1="261.818" y1="0" x2="261.818" y2="200" stroke="#f0f0f0" stroke-dasharray="2,2"/><line x1="349.091" y1="0" x2="349.091" y2="200" stroke="#f0f0f0" stroke-dasharray="2,2"/><line x1="436.364" y1="0" x2="436.364" y2="200" stroke="#f0f0f0" stroke-dasharray="2,2"/><rect x="0" y="5" width="392.727" height="40" fill="#1f77b4"/><rect x="0" y="55" width="279.273" height="40" fill="#ff7f0e"/><rect x="0" y="105" width="445.091" height="40" fill="#2ca02c"/><rect x="0" y="155" width="244.364" height="40" fill="#d62728"/><g transform="translate(0,200)"><g transform="translate(0,0)"><line y2="6" stroke="#666666"/><text y="18" text-anchor="middle" font-family="sans-serif" font-size="11" fill="#666666">0</text></g><g transform="translate(87.273,0)"><line y2="6" stroke="#666666"/><text y="18" text-anchor="middle" font-family="sans-serif" font-size="11" fill="#666666">1000</text></g><g transform="translate(174.545,0)"><line y2="6" stroke="#666666"/><text y="18" text-anchor="middle" font-family="sans-serif" font-size="11" fill="#666666">2000</text></g><g transform="translate(261.818,0)"><line y2="6" stroke="#666666"/><text y="18" text-anchor="middle" font-family="sans-serif" font-size="11" fill="#666666">3000</text></g><g transform="translate(349.091,0)"><line y2="6" stroke="#666666"/><text y="18" text-anchor="middle" font-family="sans-serif" font-size="11" fill="#666666">4000</text></g><g transform="translate(436.364,0)"><line y2="6" stroke="#666666"/><text y="18" text-anchor="middle" font-family="sans-serif" font-size="11" fill="#666666">5000</text></g></g><g><g transform="translate(0,25)"><line x2="-6" stroke="#666666"/><text x="-9" dy="0.32em" text-anchor="end" font-family="sans-serif" font-size="11" fill="#666666">Widget A</text></g><g transform="translate(0,75)"><line x2="-6" stroke="#666666"/><text x="-9" dy="0.32em" text-anchor="end" font-family="sans-serif" font-size="11" fill="#666666">Widget B</text></g><g transform="translate(0,125)"><line x2="-6" stroke="#666666"/><text x="-9" dy="0.32em" text-anchor="end" font-family="sans-serif" font-size="11" fill="#666666">Widget C</text></g><g transform="translate(0,175)"><line x2="-6" stroke="#666666"/><text x="-9" dy="0.32em" text-anchor="end" font-family="sans-serif" font-size="11" fill="#666666">Widget D</text></g></g></g></svg>