<svg height="320" viewBox="0 0 480 320" width="480" xmlns="http://www.w3.org/2000/svg"><rect width="480" height="320" fill="#1e1e2e"/><g transform="translate(60,40)"><text x="200" y="16" text-anchor="middle" font-family="sans-serif" font-size="16" font-weight="bold" fill="#cdd6f4">Quarterly Revenue</text><line x1="0" y1="220" x2="400" y2="220" stroke="#44475a" stroke-dasharray="2,2"/><line x1="0" y1="188.571" x2="400" y2="188.571" stroke="#44475a" stroke-dasharray="2,2"/><line x1="0" y1="157.143" x2="400" y2="157.143" stroke="#44475a" stroke-dasharray="2,2"/><line x1="0" y1="125.714" x2="400" y2="125.714" stroke="#44475a" stroke-dasharray="2,2"/><line x1="0" y1="94.286" x2="400" y2="94.286" stroke="#44475a" stroke-dasharray="2,2"/><line x1="0" y1="62.857" x2="400" y2="62.857" stroke="#44475a" stroke-dasharray="2,2"/><line x1="0" y1="31.429" x2="400" y2="31.429" stroke="#44475a" stroke-dasharray="2,2"/><line x1="0" y1="0" x2="400" y2="0" stroke="#44475a" stroke-dasharray="2,2"/><rect x="10" y="81.714" width="80" height="138.286" fill="#89b4fa"/><rect x="110" y="40.857" width="80" height="179.143" fill="#fab387"/><rect x="210" y="25.143" width="80" height="194.857" fill="#f38ba8"/><rect x="310" y="53.429" width="80" height="166.571" fill="#94e2d5"/><g class="axis axis-bottom" fill="none" stroke="none"><line x1="0" x2="400" stroke="#cdd6f4"/><g transform="translate(50,0)"><line y2="6" stroke="#cdd6f4"/><text y="21" text-anchor="middle" font-family="sans-serif" font-size="12" fill="#cdd6f4">Q1</text></g><g transform="translate(150,0)"><line y2="6" stroke="#cdd6f4"/><text y="21" text-anchor="middle" font-family="sans-serif" font-size="12" fill="#cdd6f4">Q2</text></g><g transform="translate(250,0)"><line y2="6" stroke="#cdd6f4"/><text y="21" text-anchor="middle" font-family="sans-serif" font-size="12" fill="#cdd6f4">Q3</text></g><g transform="translate(350,0)"><line y2="6" stroke="#cdd6f4"/><text y="21" text-anchor="middle" font-family="sans-serif" font-size="12" fill="#cdd6f4">Q4</text></g></g><g class="axis axis-left" fill="none" stroke="none"><line y1="220" y2="0" stroke="#cdd6f4"/><g transform="translate(0,220)"><line x2="-6" stroke="#cdd6f4"/><text x="-9" dy="0.32em" text-anchor="end" font-family="sans-serif" font-size="12" fill="#cdd6f4">0</text></g><g transform="translate(0,188.571)"><line x2="-6" stroke="#cdd6f4"/><text x="-9" dy="0.32em" text-anchor="end" font-family="sans-serif" font-size="12" fill="#cdd6f4">50</text></g><g transform="translate(0,157.143)"><line x2="-6" stroke="#cdd6f4"/><text x="-9" dy="0.32em" text-anchor="end" font-family="sans-serif" font-size="12" fill="#cdd6f4">100</text></g><g transform="translate(0,125.714)"><line x2="-6" stroke="#cdd6f4"/><text x="-9" dy="0.32em" text-anchor="end" font-family="sans-serif" font-size="12" fill="#cdd6f4">150</text></g><g transform="translate(0,94.286)"><line x2="-6" stroke="#cdd6f4"/><text x="-9" dy="0.32em" text-anchor="end" font-family="sans-serif" font-size="12" fill="#cdd6f4">200</text></g><g transform="translate(0,62.857)"><line x2="-6" stroke="#cdd6f4"/><text x="-9" dy="0.32em" text-anchor="end" font-family="sans-serif" font-size="12" fill="#cdd6f4">250</text></g><g transform="translate(0,31.429)"><line x2="-6" stroke="#cdd6f4"/><text x="-9" dy="0.32em" text-anchor="end" font-family="sans-serif" font-size="12" fill="#cdd6f4">300</text></g><g transform="translate(0,0)"><line x2="-6" stroke="#cdd6f4"/><text x="-9" dy="0.32em" text-anchor="end" font-family="sans-serif" font-size="12" fill="#cdd6f4">350</text></g></g></g></svg>