<svg height="200" viewBox="0 0 540 200" width="540" xmlns="http://www.w3.org/2000/svg"><rect width="540" height="200" fill="#ffffff"/><g transform="translate(100,0)"><text x="200" y="14" text-anchor="middle" font-family="sans-serif" font-size="14" font-weight="bold" fill="#333333">Sales Performance vs Target</text><text x="-8" y="52" text-anchor="end" font-family="sans-serif" font-size="12" fill="#333333">Revenue</text><rect x="0" y="30" width="400" height="36" fill="#eafaf1"/><rect x="0" y="30" width="300" height="36" fill="#fef9e7"/><rect x="0" y="30" width="200" height="36" fill="#fad7a0"/><rect x="0" y="40" width="293.333" height="16" fill="#4e79a7"/><line x1="320" y1="34" x2="320" y2="62" stroke="#333333" stroke-width="3"/><text x="297.333" y="52" font-family="sans-serif" font-size="11" fill="#333333">220</text><text x="-8" y="104" text-anchor="end" font-family="sans-serif" font-size="12" fill="#333333">Profit</text><rect x="0" y="82" width="120" height="36" fill="#eafaf1"/><rect x="0" y="82" width="86.667" height="36" fill="#fef9e7"/><rect x="0" y="82" width="53.333" height="36" fill="#fadbd8"/><rect x="0" y="92" width="73.333" height="16" fill="#4e79a7"/><line x1="93.333" y1="86" x2="93.333" y2="114" stroke="#333333" stroke-width="3"/><text x="77.333" y="104" font-family="sans-serif" font-size="11" fill="#333333">55</text><text x="-8" y="156" text-anchor="end" font-family="sans-serif" font-size="12" fill="#333333">Orders</text><rect x="0" y="134" width="320" height="36" fill="#eafaf1"/><rect x="0" y="134" width="246.667" height="36" fill="#eaf8ff"/><rect x="0" y="134" width="160" height="36" fill="#d6eaf8"/><rect x="0" y="144" width="240" height="16" fill="#4e79a7"/><line x1="266.667" y1="138" x2="266.667" y2="166" stroke="#333333" stroke-width="3"/><text x="244" y="156" font-family="sans-serif" font-size="11" fill="#333333">180</text><text x="0" y="176" text-anchor="middle" font-family="sans-serif" font-size="11" fill="#333333">0</text><text x="66.667" y="176" text-anchor="middle" font-family="sans-serif" font-size="11" fill="#333333">50</text><text x="133.333" y="176" text-anchor="middle" font-family="sans-serif" font-size="11" fill="#333333">100</text><text x="200" y="176" text-anchor="middle" font-family="sans-serif" font-size="11" fill="#333333">150</text><text x="266.667" y="176" text-anchor="middle" font-family="sans-serif" font-size="11" fill="#333333">200</text><text x="333.333" y="176" text-anchor="middle" font-family="sans-serif" font-size="11" fill="#333333">250</text><text x="400" y="176" text-anchor="middle" font-family="sans-serif" font-size="11" fill="#333333">300</text><line x1="0" y1="150" x2="400" y2="150" stroke="#333333"/></g></svg>