<svg height="320" viewBox="0 0 520 320" width="520" xmlns="http://www.w3.org/2000/svg"><rect width="520" height="320" fill="#ffffff"/><g transform="translate(80,60)"><text x="205" y="16" text-anchor="middle" font-family="sans-serif" font-size="16" font-weight="bold" fill="#333333">Activity Heatmap</text><rect x="0" y="0" width="67.333" height="35" fill="rgb(60,109,140)"/><text x="34.167" y="22" text-anchor="middle" font-family="sans-serif" font-size="11" fill="#ffffff">84</text><rect x="68.333" y="0" width="67.333" height="35" fill="rgb(31,86,121)"/><text x="102.5" y="22" text-anchor="middle" font-family="sans-serif" font-size="11" fill="#ffffff">96</text><rect x="136.667" y="0" width="67.333" height="35" fill="rgb(207,222,234)"/><text x="170.833" y="22" text-anchor="middle" font-family="sans-serif" font-size="11" fill="#333333">24</text><rect x="205" y="0" width="67.333" height="35" fill="rgb(163,188,206)"/><text x="239.167" y="22" text-anchor="middle" font-family="sans-serif" font-size="11" fill="#333333">42</text><rect x="273.333" y="0" width="67.333" height="35" fill="rgb(161,186,204)"/><text x="307.5" y="22" text-anchor="middle" font-family="sans-serif" font-size="11" fill="#333333">43</text><rect x="341.667" y="0" width="67.333" height="35" fill="rgb(26,82,118)"/><text x="375.833" y="22" text-anchor="middle" font-family="sans-serif" font-size="11" fill="#ffffff">98</text><rect x="0" y="36" width="67.333" height="35" fill="rgb(46,97,131)"/><text x="34.167" y="58" text-anchor="middle" font-family="sans-serif" font-size="11" fill="#ffffff">90</text><rect x="68.333" y="36" width="67.333" height="35" fill="rgb(126,160,182)"/><text x="102.5" y="58" text-anchor="middle" font-family="sans-serif" font-size="11" fill="#333333">57</text><rect x="136.667" y="36" width="67.333" height="35" fill="rgb(168,192,209)"/><text x="170.833" y="58" text-anchor="middle" font-family="sans-serif" font-size="11" fill="#333333">40</text><rect x="205" y="36" width="67.333" height="35" fill="rgb(107,145,170)"/><text x="239.167" y="58" text-anchor="middle" font-family="sans-serif" font-size="11" fill="#ffffff">65</text><rect x="273.333" y="36" width="67.333" height="35" fill="rgb(165,190,207)"/><text x="307.5" y="58" text-anchor="middle" font-family="sans-serif" font-size="11" fill="#333333">41</text><rect x="341.667" y="36" width="67.333" height="35" fill="rgb(55,105,137)"/><text x="375.833" y="58" text-anchor="middle" font-family="sans-serif" font-size="11" fill="#ffffff">86</text><rect x="0" y="72" width="67.333" height="35" fill="rgb(180,201,217)"/><text x="34.167" y="94" text-anchor="middle" font-family="sans-serif" font-size="11" fill="#333333">35</text><rect x="68.333" y="72" width="67.333" height="35" fill="rgb(234,243,251)"/><text x="102.5" y="94" text-anchor="middle" font-family="sans-serif" font-size="11" fill="#333333">13</text><rect x="136.667" y="72" width="67.333" height="35" fill="rgb(107,145,170)"/><text x="170.833" y="94" text-anchor="middle" font-family="sans-serif" font-size="11" fill="#ffffff">65</text><rect x="205" y="72" width="67.333" height="35" fill="rgb(131,163,185)"/><text x="239.167" y="94" text-anchor="middle" font-family="sans-serif" font-size="11" fill="#333333">55</text><rect x="273.333" y="72" width="67.333" height="35" fill="rgb(153,180,199)"/><text x="307.5" y="94" text-anchor="middle" font-family="sans-serif" font-size="11" fill="#333333">46</text><rect x="341.667" y="72" width="67.333" height="35" fill="rgb(72,118,148)"/><text x="375.833" y="94" text-anchor="middle" font-family="sans-serif" font-size="11" fill="#ffffff">79</text><rect x="0" y="108" width="67.333" height="35" fill="rgb(200,216,229)"/><text x="34.167" y="130" text-anchor="middle" font-family="sans-serif" font-size="11" fill="#333333">27</text><rect x="68.333" y="108" width="67.333" height="35" fill="rgb(124,158,181)"/><text x="102.5" y="130" text-anchor="middle" font-family="sans-serif" font-size="11" fill="#333333">58</text><rect x="136.667" y="108" width="67.333" height="35" fill="rgb(72,118,148)"/><text x="170.833" y="130" text-anchor="middle" font-family="sans-serif" font-size="11" fill="#ffffff">79</text><rect x="205" y="108" width="67.333" height="35" fill="rgb(107,145,170)"/><text x="239.167" y="130" text-anchor="middle" font-family="sans-serif" font-size="11" fill="#ffffff">65</text><rect x="273.333" y="108" width="67.333" height="35" fill="rgb(53,103,135)"/><text x="307.5" y="130" text-anchor="middle" font-family="sans-serif" font-size="11" fill="#ffffff">87</text><rect x="341.667" y="108" width="67.333" height="35" fill="rgb(33,88,123)"/><text x="375.833" y="130" text-anchor="middle" font-family="sans-serif" font-size="11" fill="#ffffff">95</text><rect x="0" y="144" width="67.333" height="35" fill="rgb(95,135,162)"/><text x="34.167" y="166" text-anchor="middle" font-family="sans-serif" font-size="11" fill="#ffffff">70</text><rect x="68.333" y="144" width="67.333" height="35" fill="rgb(141,171,192)"/><text x="102.5" y="166" text-anchor="middle" font-family="sans-serif" font-size="11" fill="#333333">51</text><rect x="136.667" y="144" width="67.333" height="35" fill="rgb(46,97,131)"/><text x="170.833" y="166" text-anchor="middle" font-family="sans-serif" font-size="11" fill="#ffffff">90</text><rect x="205" y="144" width="67.333" height="35" fill="rgb(131,163,185)"/><text x="239.167" y="166" text-anchor="middle" font-family="sans-serif" font-size="11" fill="#333333">55</text><rect x="273.333" y="144" width="67.333" height="35" fill="rgb(222,234,243)"/><text x="307.5" y="166" text-anchor="middle" font-family="sans-serif" font-size="11" fill="#333333">18</text><rect x="341.667" y="144" width="67.333" height="35" fill="rgb(126,160,182)"/><text x="375.833" y="166" text-anchor="middle" font-family="sans-serif" font-size="11" fill="#333333">57</text><text x="34.167" y="200" text-anchor="middle" font-family="sans-serif" font-size="12" fill="#333333">Jan</text><text x="102.5" y="200" text-anchor="middle" font-family="sans-serif" font-size="12" fill="#333333">Feb</text><text x="170.833" y="200" text-anchor="middle" font-family="sans-serif" font-size="12" fill="#333333">Mar</text><text x="239.167" y="200" text-anchor="middle" font-family="sans-serif" font-size="12" fill="#333333">Apr</text><text x="307.5" y="200" text-anchor="middle" font-family="sans-serif" font-size="12" fill="#333333">May</text><text x="375.833" y="200" text-anchor="middle" font-family="sans-serif" font-size="12" fill="#333333">Jun</text><text x="205" y="224" text-anchor="middle" font-family="sans-serif" font-size="13" fill="#333333">Month</text><text x="-8" y="22" text-anchor="end" font-family="sans-serif" font-size="12" fill="#333333">Mon</text><text x="-8" y="58" text-anchor="end" font-family="sans-serif" font-size="12" fill="#333333">Tue</text><text x="-8" y="94" text-anchor="end" font-family="sans-serif" font-size="12" fill="#333333">Wed</text><text x="-8" y="130" text-anchor="end" font-family="sans-serif" font-size="12" fill="#333333">Thu</text><text x="-8" y="166" text-anchor="end" font-family="sans-serif" font-size="12" fill="#333333">Fri</text><text transform="rotate(-90)" x="-90" y="-55" text-anchor="middle" font-family="sans-serif" font-size="13" fill="#333333">Day</text><rect x="143.5" y="235" width="12.8" height="8" fill="rgb(234,243,251)"/><rect x="155.8" y="235" width="12.8" height="8" fill="rgb(211,225,236)"/><rect x="168.1" y="235" width="12.8" height="8" fill="rgb(188,207,221)"/><rect x="180.4" y="235" width="12.8" height="8" fill="rgb(165,189,207)"/><rect x="192.7" y="235" width="12.8" height="8" fill="rgb(142,171,192)"/><rect x="205" y="235" width="12.8" height="8" fill="rgb(118,154,177)"/><rect x="217.3" y="235" width="12.8" height="8" fill="rgb(95,136,162)"/><rect x="229.6" y="235" width="12.8" height="8" fill="rgb(72,118,148)"/><rect x="241.9" y="235" width="12.8" height="8" fill="rgb(49,100,133)"/><rect x="254.2" y="235" width="12.8" height="8" fill="rgb(26,82,118)"/><text x="143.5" y="255" text-anchor="middle" font-family="sans-serif" font-size="11" fill="#333333">13</text><text x="266.5" y="255" text-anchor="middle" font-family="sans-serif" font-size="11" fill="#333333">98</text></g></svg>