<svg height="340" viewBox="0 0 580 340" width="580" xmlns="http://www.w3.org/2000/svg"><rect width="580" height="340" fill="#ffffff"/><g transform="translate(60,40)"><text x="250" y="16" text-anchor="middle" font-family="sans-serif" font-size="16" font-weight="bold" fill="#333333">Product Sales Comparison</text><line x1="0" y1="240" x2="500" y2="240" stroke="#e0e0e0" stroke-dasharray="2,2"/><line x1="0" y1="200" x2="500" y2="200" stroke="#e0e0e0" stroke-dasharray="2,2"/><line x1="0" y1="160" x2="500" y2="160" stroke="#e0e0e0" stroke-dasharray="2,2"/><line x1="0" y1="120" x2="500" y2="120" stroke="#e0e0e0" stroke-dasharray="2,2"/><line x1="0" y1="80" x2="500" y2="80" stroke="#e0e0e0" stroke-dasharray="2,2"/><line x1="0" y1="40" x2="500" y2="40" stroke="#e0e0e0" stroke-dasharray="2,2"/><line x1="0" y1="0" x2="500" y2="0" stroke="#e0e0e0" stroke-dasharray="2,2"/><path d="M 0,120 C 33.333,100 66.667,60 100,60 C 133.333,60 166.667,88 200,88 C 233.333,88 266.667,45.576 300,32 C 333.333,18.424 366.667,0 400,0 C 433.333,0 466.667,13.333 500,20" fill="none" stroke="#4e79a7" stroke-width="2"/><circle cx="0" cy="120" r="4" fill="#4e79a7"/><circle cx="100" cy="60" r="4" fill="#4e79a7"/><circle cx="200" cy="88" r="4" fill="#4e79a7"/><circle cx="300" cy="32" r="4" fill="#4e79a7"/><circle cx="400" cy="0" r="4" fill="#4e79a7"/><circle cx="500" cy="20" r="4" fill="#4e79a7"/><path d="M 0,160 C 33.333,149.333 66.667,137.956 100,128 C 133.333,118.044 166.667,100 200,100 C 233.333,100 266.667,120 300,120 C 333.333,120 366.667,91.852 400,80 C 433.333,68.148 466.667,58.667 500,48" fill="none" stroke="#f28e2b" stroke-width="2"/><circle cx="0" cy="160" r="4" fill="#f28e2b"/><circle cx="100" cy="128" r="4" fill="#f28e2b"/><circle cx="200" cy="100" r="4" fill="#f28e2b"/><circle cx="300" cy="120" r="4" fill="#f28e2b"/><circle cx="400" cy="80" r="4" fill="#f28e2b"/><circle cx="500" cy="48" r="4" fill="#f28e2b"/><path d="M 0,200 C 33.333,193.333 66.667,180 100,180 C 133.333,180 166.667,192 200,192 C 233.333,192 266.667,174.4 300,168 C 333.333,161.6 366.667,156.571 400,152 C 433.333,147.429 466.667,144 500,140" fill="none" stroke="#e15759" stroke-width="2"/><circle cx="0" cy="200" r="4" fill="#e15759"/><circle cx="100" cy="180" r="4" fill="#e15759"/><circle cx="200" cy="192" r="4" fill="#e15759"/><circle cx="300" cy="168" r="4" fill="#e15759"/><circle cx="400" cy="152" r="4" fill="#e15759"/><circle cx="500" cy="140" r="4" fill="#e15759"/><g class="axis axis-bottom" fill="none" stroke="none"><line x1="0" x2="500" stroke="#333333"/><g transform="translate(0,0)"><line y2="6" stroke="#333333"/><text y="21" text-anchor="middle" font-family="sans-serif" font-size="12" fill="#333333">1</text></g><g transform="translate(100,0)"><line y2="6" stroke="#333333"/><text y="21" text-anchor="middle" font-family="sans-serif" font-size="12" fill="#333333">2</text></g><g transform="translate(200,0)"><line y2="6" stroke="#333333"/><text y="21" text-anchor="middle" font-family="sans-serif" font-size="12" fill="#333333">3</text></g><g transform="translate(300,0)"><line y2="6" stroke="#333333"/><text y="21" text-anchor="middle" font-family="sans-serif" font-size="12" fill="#333333">4</text></g><g transform="translate(400,0)"><line y2="6" stroke="#333333"/><text y="21" text-anchor="middle" font-family="sans-serif" font-size="12" fill="#333333">5</text></g><g transform="translate(500,0)"><line y2="6" stroke="#333333"/><text y="21" text-anchor="middle" font-family="sans-serif" font-size="12" fill="#333333">6</text></g></g><g class="axis axis-left" fill="none" stroke="none"><line y1="240" y2="0" stroke="#333333"/><g transform="translate(0,240)"><line x2="-6" stroke="#333333"/><text x="-9" dy="0.32em" text-anchor="end" font-family="sans-serif" font-size="12" fill="#333333">0</text></g><g transform="translate(0,200)"><line x2="-6" stroke="#333333"/><text x="-9" dy="0.32em" text-anchor="end" font-family="sans-serif" font-size="12" fill="#333333">10</text></g><g transform="translate(0,160)"><line x2="-6" stroke="#333333"/><text x="-9" dy="0.32em" text-anchor="end" font-family="sans-serif" font-size="12" fill="#333333">20</text></g><g transform="translate(0,120)"><line x2="-6" stroke="#333333"/><text x="-9" dy="0.32em" text-anchor="end" font-family="sans-serif" font-size="12" fill="#333333">30</text></g><g transform="translate(0,80)"><line x2="-6" stroke="#333333"/><text x="-9" dy="0.32em" text-anchor="end" font-family="sans-serif" font-size="12" fill="#333333">40</text></g><g transform="translate(0,40)"><line x2="-6" stroke="#333333"/><text x="-9" dy="0.32em" text-anchor="end" font-family="sans-serif" font-size="12" fill="#333333">50</text></g><g transform="translate(0,0)"><line x2="-6" stroke="#333333"/><text x="-9" dy="0.32em" text-anchor="end" font-family="sans-serif" font-size="12" fill="#333333">60</text></g></g><rect x="380" y="10" width="14" height="12" fill="#4e79a7"/><text x="399" y="20" font-family="sans-serif" font-size="12" fill="#333333">Product A</text><rect x="380" y="30" width="14" height="12" fill="#f28e2b"/><text x="399" y="40" font-family="sans-serif" font-size="12" fill="#333333">Product B</text><rect x="380" y="50" width="14" height="12" fill="#e15759"/><text x="399" y="60" font-family="sans-serif" font-size="12" fill="#333333">Product C</text></g></svg>