<svg height="320" viewBox="0 0 560 320" width="560" xmlns="http://www.w3.org/2000/svg"><rect width="560" height="320" fill="#ffffff"/><g transform="translate(60,40)"><text x="240" y="16" text-anchor="middle" font-family="sans-serif" font-size="16" font-weight="bold" fill="#333333">Seasonal Trend</text><line x1="0" y1="220" x2="480" y2="220" stroke="#e0e0e0" stroke-dasharray="2,2"/><line x1="0" y1="188.571" x2="480" y2="188.571" stroke="#e0e0e0" stroke-dasharray="2,2"/><line x1="0" y1="157.143" x2="480" y2="157.143" stroke="#e0e0e0" stroke-dasharray="2,2"/><line x1="0" y1="125.714" x2="480" y2="125.714" stroke="#e0e0e0" stroke-dasharray="2,2"/><line x1="0" y1="94.286" x2="480" y2="94.286" stroke="#e0e0e0" stroke-dasharray="2,2"/><line x1="0" y1="62.857" x2="480" y2="62.857" stroke="#e0e0e0" stroke-dasharray="2,2"/><line x1="0" y1="31.429" x2="480" y2="31.429" stroke="#e0e0e0" stroke-dasharray="2,2"/><line x1="0" y1="0" x2="480" y2="0" stroke="#e0e0e0" stroke-dasharray="2,2"/><path d="M 0,106.857 C 13.333,91.143 26.667,72.998 40,59.714 C 53.333,46.431 66.667,31.368 80,25.203 C 93.333,19.039 106.667,12.571 120,12.571 C 133.333,12.571 146.667,19.039 160,25.203 C 173.333,31.368 186.667,46.431 200,59.714 C 213.333,72.998 226.667,91.143 240,106.857 C 253.333,122.571 266.667,140.717 280,154 C 293.333,167.283 306.667,182.346 320,188.511 C 333.333,194.676 346.667,201.143 360,201.143 C 373.333,201.143 386.667,194.676 400,188.511 C 413.333,182.346 426.667,167.283 440,154 C 453.333,140.717 466.667,122.571 480,106.857" fill="none" stroke="#4e79a7" stroke-width="2"/><circle cx="0" cy="106.857" r="4" fill="#4e79a7"/><circle cx="40" cy="59.714" r="4" fill="#4e79a7"/><circle cx="80" cy="25.203" r="4" fill="#4e79a7"/><circle cx="120" cy="12.571" r="4" fill="#4e79a7"/><circle cx="160" cy="25.203" r="4" fill="#4e79a7"/><circle cx="200" cy="59.714" r="4" fill="#4e79a7"/><circle cx="240" cy="106.857" r="4" fill="#4e79a7"/><circle cx="280" cy="154" r="4" fill="#4e79a7"/><circle cx="320" cy="188.511" r="4" fill="#4e79a7"/><circle cx="360" cy="201.143" r="4" fill="#4e79a7"/><circle cx="400" cy="188.511" r="4" fill="#4e79a7"/><circle cx="440" cy="154" r="4" fill="#4e79a7"/><circle cx="480" cy="106.857" r="4" fill="#4e79a7"/><g class="axis axis-bottom" fill="none" stroke="none"><line x1="0" x2="480" stroke="#333333"/><g transform="translate(0,0)"><line y2="6" stroke="#333333"/><text y="21" text-anchor="middle" font-family="sans-serif" font-size="12" fill="#333333">0</text></g><g transform="translate(80,0)"><line y2="6" stroke="#333333"/><text y="21" text-anchor="middle" font-family="sans-serif" font-size="12" fill="#333333">2</text></g><g transform="translate(160,0)"><line y2="6" stroke="#333333"/><text y="21" text-anchor="middle" font-family="sans-serif" font-size="12" fill="#333333">4</text></g><g transform="translate(240,0)"><line y2="6" stroke="#333333"/><text y="21" text-anchor="middle" font-family="sans-serif" font-size="12" fill="#333333">6</text></g><g transform="translate(320,0)"><line y2="6" stroke="#333333"/><text y="21" text-anchor="middle" font-family="sans-serif" font-size="12" fill="#333333">8</text></g><g transform="translate(400,0)"><line y2="6" stroke="#333333"/><text y="21" text-anchor="middle" font-family="sans-serif" font-size="12" fill="#333333">10</text></g><g transform="translate(480,0)"><line y2="6" stroke="#333333"/><text y="21" text-anchor="middle" font-family="sans-serif" font-size="12" fill="#333333">12</text></g><text x="240" y="41" text-anchor="middle" font-family="sans-serif" font-size="13" fill="#333333">Month</text></g><g class="axis axis-left" fill="none" stroke="none"><line y1="220" y2="0" stroke="#333333"/><g transform="translate(0,220)"><line x2="-6" stroke="#333333"/><text x="-9" dy="0.32em" text-anchor="end" font-family="sans-serif" font-size="12" fill="#333333">-5</text></g><g transform="translate(0,188.571)"><line x2="-6" stroke="#333333"/><text x="-9" dy="0.32em" text-anchor="end" font-family="sans-serif" font-size="12" fill="#333333">0</text></g><g transform="translate(0,157.143)"><line x2="-6" stroke="#333333"/><text x="-9" dy="0.32em" text-anchor="end" font-family="sans-serif" font-size="12" fill="#333333">5</text></g><g transform="translate(0,125.714)"><line x2="-6" stroke="#333333"/><text x="-9" dy="0.32em" text-anchor="end" font-family="sans-serif" font-size="12" fill="#333333">10</text></g><g transform="translate(0,94.286)"><line x2="-6" stroke="#333333"/><text x="-9" dy="0.32em" text-anchor="end" font-family="sans-serif" font-size="12" fill="#333333">15</text></g><g transform="translate(0,62.857)"><line x2="-6" stroke="#333333"/><text x="-9" dy="0.32em" text-anchor="end" font-family="sans-serif" font-size="12" fill="#333333">20</text></g><g transform="translate(0,31.429)"><line x2="-6" stroke="#333333"/><text x="-9" dy="0.32em" text-anchor="end" font-family="sans-serif" font-size="12" fill="#333333">25</text></g><g transform="translate(0,0)"><line x2="-6" stroke="#333333"/><text x="-9" dy="0.32em" text-anchor="end" font-family="sans-serif" font-size="12" fill="#333333">30</text></g><text transform="rotate(-90)" x="-110" y="-69" text-anchor="middle" font-family="sans-serif" font-size="13" fill="#333333">Value</text></g></g></svg>