<svg height="400" viewBox="0 0 480 400" width="480" xmlns="http://www.w3.org/2000/svg"><rect width="480" height="400" fill="#ffffff"/><text x="240" y="16" text-anchor="middle" font-family="sans-serif" font-size="16" font-weight="bold" fill="#333333">Market Share</text><path d="M 180,210 L 180,60 A 150,150 0 0,1 301.353,298.168 Z" fill="#4e79a7" stroke="white" stroke-width="1"/><text x="273.556" y="162.331" text-anchor="middle" dominant-baseline="middle" font-family="sans-serif" font-size="11" fill="white">35.0%</text><path d="M 180,210 L 301.353,298.168 A 150,150 0 0,1 70.655,312.682 Z" fill="#f28e2b" stroke="white" stroke-width="1"/><text x="186.593" y="314.793" text-anchor="middle" dominant-baseline="middle" font-family="sans-serif" font-size="11" fill="white">28.0%</text><path d="M 180,210 L 70.655,312.682 A 150,150 0 0,1 48.554,137.737 Z" fill="#e15759" stroke="white" stroke-width="1"/><text x="75.828" y="223.16" text-anchor="middle" dominant-baseline="middle" font-family="sans-serif" font-size="11" fill="white">20.0%</text><path d="M 180,210 L 48.554,137.737 A 150,150 0 0,1 116.133,74.276 Z" fill="#76b7b2" stroke="white" stroke-width="1"/><text x="108.123" y="133.458" text-anchor="middle" dominant-baseline="middle" font-family="sans-serif" font-size="11" fill="white">10.0%</text><path d="M 180,210 L 116.133,74.276 A 150,150 0 0,1 180,60 Z" fill="#59a14f" stroke="white" stroke-width="1"/><text x="157.095" y="107.529" text-anchor="middle" dominant-baseline="middle" font-family="sans-serif" font-size="11" fill="white">7.0%</text><rect x="345" y="160" width="14" height="12" fill="#4e79a7"/><text x="363" y="171" font-family="sans-serif" font-size="12" fill="#333333">Alpha Corp</text><rect x="345" y="182" width="14" height="12" fill="#f28e2b"/><text x="363" y="193" font-family="sans-serif" font-size="12" fill="#333333">Beta Ltd</text><rect x="345" y="204" width="14" height="12" fill="#e15759"/><text x="363" y="215" font-family="sans-serif" font-size="12" fill="#333333">Gamma Inc</text><rect x="345" y="226" width="14" height="12" fill="#76b7b2"/><text x="363" y="237" font-family="sans-serif" font-size="12" fill="#333333">Delta Co</text><rect x="345" y="248" width="14" height="12" fill="#59a14f"/><text x="363" y="259" font-family="sans-serif" font-size="12" fill="#333333">Other</text></svg>