<svg height="220" viewBox="0 0 440 220" width="440" xmlns="http://www.w3.org/2000/svg"><rect width="440" height="220" fill="#ffffff"/><text x="220" y="18" text-anchor="middle" font-family="sans-serif" font-size="12" font-weight="bold" fill="#333333">Project Completion</text><text x="16" y="30" font-family="sans-serif" font-size="12" fill="#333333">Frontend</text><rect x="16" y="46" width="408" height="22" rx="11" fill="#e0e0e0"/><rect x="16" y="46" width="346.8" height="22" rx="11" fill="#3498db"/><text x="220" y="61" text-anchor="middle" font-family="sans-serif" font-size="11" fill="#ffffff">85%</text><text x="16" y="74" font-family="sans-serif" font-size="12" fill="#333333">Backend</text><rect x="16" y="90" width="408" height="22" rx="11" fill="#e0e0e0"/><rect x="16" y="90" width="252.96" height="22" rx="11" fill="#9b59b6"/><text x="220" y="105" text-anchor="middle" font-family="sans-serif" font-size="11" fill="#ffffff">62%</text><text x="16" y="118" font-family="sans-serif" font-size="12" fill="#333333">Testing</text><rect x="16" y="134" width="408" height="22" rx="11" fill="#e0e0e0"/><rect x="16" y="134" width="183.6" height="22" rx="11" fill="#e67e22"/><text x="220" y="149" text-anchor="middle" font-family="sans-serif" font-size="11" fill="#333333">45%</text><text x="16" y="162" font-family="sans-serif" font-size="12" fill="#333333">Docs</text><rect x="16" y="178" width="408" height="22" rx="11" fill="#e0e0e0"/><rect x="16" y="178" width="122.4" height="22" rx="11" fill="#1abc9c"/><text x="220" y="193" text-anchor="middle" font-family="sans-serif" font-size="11" fill="#333333">30%</text></svg>