<svg height="360" viewBox="0 0 540 360" width="540" xmlns="http://www.w3.org/2000/svg"><rect width="540" height="360" fill="#ffffff"/><g transform="translate(60,40)"><text x="225" y="16" text-anchor="middle" font-family="sans-serif" font-size="16" font-weight="bold" fill="#333333">Correlation Analysis</text><line x1="0" y1="226.694" x2="450" y2="226.694" stroke="#e0e0e0" stroke-dasharray="2,2"/><line x1="0" y1="183.719" x2="450" y2="183.719" stroke="#e0e0e0" stroke-dasharray="2,2"/><line x1="0" y1="140.744" x2="450" y2="140.744" stroke="#e0e0e0" stroke-dasharray="2,2"/><line x1="0" y1="97.769" x2="450" y2="97.769" stroke="#e0e0e0" stroke-dasharray="2,2"/><line x1="0" y1="54.793" x2="450" y2="54.793" stroke="#e0e0e0" stroke-dasharray="2,2"/><line x1="0" y1="11.818" x2="450" y2="11.818" stroke="#e0e0e0" stroke-dasharray="2,2"/><circle cx="36.189" cy="183.719" r="5" fill="#4e79a7" fill-opacity="0.7"/><circle cx="193.531" cy="248.182" r="5" fill="#4e79a7" fill-opacity="0.7"/><circle cx="75.524" cy="119.256" r="5" fill="#4e79a7" fill-opacity="0.7"/><circle cx="311.538" cy="149.339" r="5" fill="#4e79a7" fill-opacity="0.7"/><circle cx="177.797" cy="89.174" r="5" fill="#4e79a7" fill-opacity="0.7"/><circle cx="366.608" cy="205.207" r="5" fill="#4e79a7" fill-opacity="0.7"/><circle cx="232.867" cy="54.793" r="5" fill="#4e79a7" fill-opacity="0.7"/><circle cx="20.455" cy="106.364" r="5" fill="#4e79a7" fill-opacity="0.7"/><circle cx="429.545" cy="175.124" r="5" fill="#4e79a7" fill-opacity="0.7"/><circle cx="130.594" cy="11.818" r="5" fill="#4e79a7" fill-opacity="0.7"/><g class="axis axis-bottom" fill="none" stroke="none"><line x1="0" x2="450" stroke="#333333"/><g transform="translate(36.189,0)"><line y2="6" stroke="#333333"/><text y="21" text-anchor="middle" font-family="sans-serif" font-size="12" fill="#333333">10</text></g><g transform="translate(114.86,0)"><line y2="6" stroke="#333333"/><text y="21" text-anchor="middle" font-family="sans-serif" font-size="12" fill="#333333">20</text></g><g transform="translate(193.531,0)"><line y2="6" stroke="#333333"/><text y="21" text-anchor="middle" font-family="sans-serif" font-size="12" fill="#333333">30</text></g><g transform="translate(272.203,0)"><line y2="6" stroke="#333333"/><text y="21" text-anchor="middle" font-family="sans-serif" font-size="12" fill="#333333">40</text></g><g transform="translate(350.874,0)"><line y2="6" stroke="#333333"/><text y="21" text-anchor="middle" font-family="sans-serif" font-size="12" fill="#333333">50</text></g><g transform="translate(429.545,0)"><line y2="6" stroke="#333333"/><text y="21" text-anchor="middle" font-family="sans-serif" font-size="12" fill="#333333">60</text></g><text x="225" y="41" text-anchor="middle" font-family="sans-serif" font-size="13" fill="#333333">Variable X</text></g><g class="axis axis-left" fill="none" stroke="none"><line y1="260" y2="0" stroke="#333333"/><g transform="translate(0,226.694)"><line x2="-6" stroke="#333333"/><text x="-9" dy="0.32em" text-anchor="end" font-family="sans-serif" font-size="12" fill="#333333">10</text></g><g transform="translate(0,183.719)"><line x2="-6" stroke="#333333"/><text x="-9" dy="0.32em" text-anchor="end" font-family="sans-serif" font-size="12" fill="#333333">20</text></g><g transform="translate(0,140.744)"><line x2="-6" stroke="#333333"/><text x="-9" dy="0.32em" text-anchor="end" font-family="sans-serif" font-size="12" fill="#333333">30</text></g><g transform="translate(0,97.769)"><line x2="-6" stroke="#333333"/><text x="-9" dy="0.32em" text-anchor="end" font-family="sans-serif" font-size="12" fill="#333333">40</text></g><g transform="translate(0,54.793)"><line x2="-6" stroke="#333333"/><text x="-9" dy="0.32em" text-anchor="end" font-family="sans-serif" font-size="12" fill="#333333">50</text></g><g transform="translate(0,11.818)"><line x2="-6" stroke="#333333"/><text x="-9" dy="0.32em" text-anchor="end" font-family="sans-serif" font-size="12" fill="#333333">60</text></g><text transform="rotate(-90)" x="-130" y="-69" text-anchor="middle" font-family="sans-serif" font-size="13" fill="#333333">Variable Y</text></g></g></svg>