<svg height="50" viewBox="0 0 150 50" width="150" xmlns="http://www.w3.org/2000/svg"><rect width="150" height="50" fill="#ffffff"/><path d="M 4,41.059 C 9.259,38.588 14.519,33.647 19.778,33.647 C 25.037,33.647 30.296,46 35.556,46 C 40.815,46 46.074,23.765 51.333,23.765 C 56.593,23.765 61.852,36.118 67.111,36.118 C 72.37,36.118 77.63,16.353 82.889,16.353 C 88.148,16.353 93.407,28.706 98.667,28.706 C 103.926,28.706 109.185,8.941 114.444,8.941 C 119.704,8.941 124.963,18.824 130.222,18.824 C 135.481,18.824 140.741,8.941 146,4 L 146,46 L 4,46 Z" fill="#4e79a7" fill-opacity="0.15" stroke="none"/><path d="M 4,41.059 C 9.259,38.588 14.519,33.647 19.778,33.647 C 25.037,33.647 30.296,46 35.556,46 C 40.815,46 46.074,23.765 51.333,23.765 C 56.593,23.765 61.852,36.118 67.111,36.118 C 72.37,36.118 77.63,16.353 82.889,16.353 C 88.148,16.353 93.407,28.706 98.667,28.706 C 103.926,28.706 109.185,8.941 114.444,8.941 C 119.704,8.941 124.963,18.824 130.222,18.824 C 135.481,18.824 140.741,8.941 146,4" fill="none" stroke="#4e79a7" stroke-width="1.5"/></svg>