<svg height="340" viewBox="0 0 560 340" width="560" xmlns="http://www.w3.org/2000/svg"><rect width="560" height="340" fill="#ffffff"/><g transform="translate(60,50)"><text x="180" y="16" text-anchor="middle" font-family="sans-serif" font-size="16" font-weight="bold" fill="#333333">Team Effort by Quarter</text><line x1="0" y1="230" x2="360" y2="230" stroke="#e0e0e0" stroke-dasharray="2,2"/><line x1="0" y1="188.182" x2="360" y2="188.182" stroke="#e0e0e0" stroke-dasharray="2,2"/><line x1="0" y1="146.364" x2="360" y2="146.364" stroke="#e0e0e0" stroke-dasharray="2,2"/><line x1="0" y1="104.545" x2="360" y2="104.545" stroke="#e0e0e0" stroke-dasharray="2,2"/><line x1="0" y1="62.727" x2="360" y2="62.727" stroke="#e0e0e0" stroke-dasharray="2,2"/><line x1="0" y1="20.909" x2="360" y2="20.909" stroke="#e0e0e0" stroke-dasharray="2,2"/><rect x="9" y="135.909" width="72" height="94.091" fill="#4e79a7"/><rect x="9" y="94.091" width="72" height="41.818" fill="#f28e2b"/><rect x="9" y="62.727" width="72" height="31.364" fill="#e15759"/><rect x="99" y="121.273" width="72" height="108.727" fill="#4e79a7"/><rect x="99" y="83.636" width="72" height="37.636" fill="#f28e2b"/><rect x="99" y="37.636" width="72" height="46" fill="#e15759"/><rect x="189" y="104.545" width="72" height="125.455" fill="#4e79a7"/><rect x="189" y="52.273" width="72" height="52.273" fill="#f28e2b"/><rect x="189" y="14.636" width="72" height="37.636" fill="#e15759"/><rect x="279" y="115" width="72" height="115" fill="#4e79a7"/><rect x="279" y="52.273" width="72" height="62.727" fill="#f28e2b"/><rect x="279" y="10.455" width="72" height="41.818" fill="#e15759"/><g class="axis axis-bottom" fill="none" stroke="none"><line x1="0" x2="360" stroke="#333333"/><g transform="translate(45,0)"><line y2="6" stroke="#333333"/><text y="21" text-anchor="middle" font-family="sans-serif" font-size="12" fill="#333333">Q1</text></g><g transform="translate(135,0)"><line y2="6" stroke="#333333"/><text y="21" text-anchor="middle" font-family="sans-serif" font-size="12" fill="#333333">Q2</text></g><g transform="translate(225,0)"><line y2="6" stroke="#333333"/><text y="21" text-anchor="middle" font-family="sans-serif" font-size="12" fill="#333333">Q3</text></g><g transform="translate(315,0)"><line y2="6" stroke="#333333"/><text y="21" text-anchor="middle" font-family="sans-serif" font-size="12" fill="#333333">Q4</text></g></g><g class="axis axis-left" fill="none" stroke="none"><line y1="230" y2="0" stroke="#333333"/><g transform="translate(0,230)"><line x2="-6" stroke="#333333"/><text x="-9" dy="0.32em" text-anchor="end" font-family="sans-serif" font-size="12" fill="#333333">0</text></g><g transform="translate(0,188.182)"><line x2="-6" stroke="#333333"/><text x="-9" dy="0.32em" text-anchor="end" font-family="sans-serif" font-size="12" fill="#333333">20</text></g><g transform="translate(0,146.364)"><line x2="-6" stroke="#333333"/><text x="-9" dy="0.32em" text-anchor="end" font-family="sans-serif" font-size="12" fill="#333333">40</text></g><g transform="translate(0,104.545)"><line x2="-6" stroke="#333333"/><text x="-9" dy="0.32em" text-anchor="end" font-family="sans-serif" font-size="12" fill="#333333">60</text></g><g transform="translate(0,62.727)"><line x2="-6" stroke="#333333"/><text x="-9" dy="0.32em" text-anchor="end" font-family="sans-serif" font-size="12" fill="#333333">80</text></g><g transform="translate(0,20.909)"><line x2="-6" stroke="#333333"/><text x="-9" dy="0.32em" text-anchor="end" font-family="sans-serif" font-size="12" fill="#333333">100</text></g></g><rect x="370" y="0" width="14" height="12" fill="#4e79a7"/><text x="389" y="10" font-family="sans-serif" font-size="12" fill="#333333">Dev</text><rect x="370" y="20" width="14" height="12" fill="#f28e2b"/><text x="389" y="30" font-family="sans-serif" font-size="12" fill="#333333">QA</text><rect x="370" y="40" width="14" height="12" fill="#e15759"/><text x="389" y="50" font-family="sans-serif" font-size="12" fill="#333333">Ops</text></g></svg>