<svg height="180" viewBox="0 0 640 180" width="640" xmlns="http://www.w3.org/2000/svg"><rect width="640" height="180" fill="#ffffff"/><text x="320" y="18" text-anchor="middle" font-family="sans-serif" font-size="12" font-weight="bold" fill="#333333">Product Roadmap 2024</text><line x1="40" y1="94" x2="600" y2="94" stroke="#e0e0e0" stroke-width="2"/><line x1="40" y1="94" x2="40" y2="84" stroke="#3498db" stroke-width="1"/><circle cx="40" cy="94" r="8" fill="#3498db"/><text x="40" y="72" text-anchor="middle" font-family="sans-serif" font-size="11" fill="#333333">Jan 2024</text><text x="40" y="58" text-anchor="middle" font-family="sans-serif" font-size="12" font-weight="bold" fill="#333333">Kick-off</text><line x1="180" y1="94" x2="180" y2="104" stroke="#9b59b6" stroke-width="1"/><circle cx="180" cy="94" r="8" fill="#9b59b6"/><text x="180" y="116" text-anchor="middle" font-family="sans-serif" font-size="11" fill="#333333">Mar 2024</text><text x="180" y="128" text-anchor="middle" font-family="sans-serif" font-size="12" font-weight="bold" fill="#333333">Alpha</text><line x1="320" y1="94" x2="320" y2="84" stroke="#f39c12" stroke-width="1"/><circle cx="320" cy="94" r="8" fill="#f39c12"/><text x="320" y="72" text-anchor="middle" font-family="sans-serif" font-size="11" fill="#333333">Jun 2024</text><text x="320" y="58" text-anchor="middle" font-family="sans-serif" font-size="12" font-weight="bold" fill="#333333">Beta</text><line x1="460" y1="94" x2="460" y2="104" stroke="#e74c3c" stroke-width="1"/><circle cx="460" cy="94" r="8" fill="#e74c3c"/><text x="460" y="116" text-anchor="middle" font-family="sans-serif" font-size="11" fill="#333333">Sep 2024</text><text x="460" y="128" text-anchor="middle" font-family="sans-serif" font-size="12" font-weight="bold" fill="#333333">RC</text><line x1="600" y1="94" x2="600" y2="84" stroke="#27ae60" stroke-width="1"/><circle cx="600" cy="94" r="8" fill="#27ae60"/><text x="600" y="72" text-anchor="middle" font-family="sans-serif" font-size="11" fill="#333333">Dec 2024</text><text x="600" y="58" text-anchor="middle" font-family="sans-serif" font-size="12" font-weight="bold" fill="#333333">GA</text></svg>